<svg width="1440" height="72" viewBox="0 0 1440 72" fill="none" xmlns="http://www.w3.org/2000/svg">
<rect width="1440" height="72" fill="white"/>
<path d="M72.2188 39.7734V41H66.5312V39.7734H72.2188ZM66.8281 29.625V41H65.3203V29.625H66.8281ZM75.2969 32.5469V41H73.8438V32.5469H75.2969ZM73.7344 30.3047C73.7344 30.0703 73.8047 29.8724 73.9453 29.7109C74.0911 29.5495 74.3047 29.4688 74.5859 29.4688C74.862 29.4688 75.0729 29.5495 75.2188 29.7109C75.3698 29.8724 75.4453 30.0703 75.4453 30.3047C75.4453 30.5286 75.3698 30.7214 75.2188 30.8828C75.0729 31.0391 74.862 31.1172 74.5859 31.1172C74.3047 31.1172 74.0911 31.0391 73.9453 30.8828C73.8047 30.7214 73.7344 30.5286 73.7344 30.3047ZM79.0625 34.3516V41H77.6172V32.5469H78.9844L79.0625 34.3516ZM78.7188 36.4531L78.1172 36.4297C78.1224 35.8516 78.2083 35.3177 78.375 34.8281C78.5417 34.3333 78.776 33.9036 79.0781 33.5391C79.3802 33.1745 79.7396 32.8932 80.1562 32.6953C80.5781 32.4922 81.0443 32.3906 81.5547 32.3906C81.9714 32.3906 82.3464 32.4479 82.6797 32.5625C83.013 32.6719 83.2969 32.849 83.5312 33.0938C83.7708 33.3385 83.9531 33.6562 84.0781 34.0469C84.2031 34.4323 84.2656 34.9036 84.2656 35.4609V41H82.8125V35.4453C82.8125 35.0026 82.7474 34.6484 82.6172 34.3828C82.487 34.112 82.2969 33.9167 82.0469 33.7969C81.7969 33.6719 81.4896 33.6094 81.125 33.6094C80.7656 33.6094 80.4375 33.6849 80.1406 33.8359C79.849 33.987 79.5964 34.1953 79.3828 34.4609C79.1745 34.7266 79.0104 35.0312 78.8906 35.375C78.776 35.7135 78.7188 36.0729 78.7188 36.4531ZM87.9141 29V41H86.4609V29H87.9141ZM93.0781 32.5469L89.3906 36.4922L87.3281 38.6328L87.2109 37.0938L88.6875 35.3281L91.3125 32.5469H93.0781ZM91.7578 41L88.7422 36.9688L89.4922 35.6797L93.4609 41H91.7578ZM107.516 34.9531V35.6719C107.516 36.526 107.409 37.2917 107.195 37.9688C106.982 38.6458 106.674 39.2214 106.273 39.6953C105.872 40.1693 105.391 40.5312 104.828 40.7812C104.271 41.0312 103.646 41.1562 102.953 41.1562C102.281 41.1562 101.664 41.0312 101.102 40.7812C100.544 40.5312 100.06 40.1693 99.6484 39.6953C99.2422 39.2214 98.9271 38.6458 98.7031 37.9688C98.4792 37.2917 98.3672 36.526 98.3672 35.6719V34.9531C98.3672 34.099 98.4766 33.3359 98.6953 32.6641C98.9193 31.987 99.2344 31.4115 99.6406 30.9375C100.047 30.4583 100.529 30.0938 101.086 29.8438C101.648 29.5938 102.266 29.4688 102.938 29.4688C103.63 29.4688 104.255 29.5938 104.812 29.8438C105.375 30.0938 105.857 30.4583 106.258 30.9375C106.664 31.4115 106.974 31.987 107.188 32.6641C107.406 33.3359 107.516 34.099 107.516 34.9531ZM106.023 35.6719V34.9375C106.023 34.2604 105.953 33.6615 105.812 33.1406C105.677 32.6198 105.477 32.1823 105.211 31.8281C104.945 31.474 104.62 31.2057 104.234 31.0234C103.854 30.8411 103.422 30.75 102.938 30.75C102.469 30.75 102.044 30.8411 101.664 31.0234C101.289 31.2057 100.966 31.474 100.695 31.8281C100.43 32.1823 100.224 32.6198 100.078 33.1406C99.9323 33.6615 99.8594 34.2604 99.8594 34.9375V35.6719C99.8594 36.3542 99.9323 36.9583 100.078 37.4844C100.224 38.0052 100.432 38.4453 100.703 38.8047C100.979 39.1589 101.305 39.4271 101.68 39.6094C102.06 39.7917 102.484 39.8828 102.953 39.8828C103.443 39.8828 103.878 39.7917 104.258 39.6094C104.638 39.4271 104.958 39.1589 105.219 38.8047C105.484 38.4453 105.685 38.0052 105.82 37.4844C105.956 36.9583 106.023 36.3542 106.023 35.6719ZM111 34.3516V41H109.555V32.5469H110.922L111 34.3516ZM110.656 36.4531L110.055 36.4297C110.06 35.8516 110.146 35.3177 110.312 34.8281C110.479 34.3333 110.714 33.9036 111.016 33.5391C111.318 33.1745 111.677 32.8932 112.094 32.6953C112.516 32.4922 112.982 32.3906 113.492 32.3906C113.909 32.3906 114.284 32.4479 114.617 32.5625C114.951 32.6719 115.234 32.849 115.469 33.0938C115.708 33.3385 115.891 33.6562 116.016 34.0469C116.141 34.4323 116.203 34.9036 116.203 35.4609V41H114.75V35.4453C114.75 35.0026 114.685 34.6484 114.555 34.3828C114.424 34.112 114.234 33.9167 113.984 33.7969C113.734 33.6719 113.427 33.6094 113.062 33.6094C112.703 33.6094 112.375 33.6849 112.078 33.8359C111.786 33.987 111.534 34.1953 111.32 34.4609C111.112 34.7266 110.948 35.0312 110.828 35.375C110.714 35.7135 110.656 36.0729 110.656 36.4531ZM121.906 41.1562C121.318 41.1562 120.784 41.0573 120.305 40.8594C119.831 40.6562 119.422 40.3724 119.078 40.0078C118.74 39.6432 118.479 39.2109 118.297 38.7109C118.115 38.2109 118.023 37.6641 118.023 37.0703V36.7422C118.023 36.0547 118.125 35.4427 118.328 34.9062C118.531 34.3646 118.807 33.9062 119.156 33.5312C119.505 33.1562 119.901 32.8724 120.344 32.6797C120.786 32.487 121.245 32.3906 121.719 32.3906C122.323 32.3906 122.844 32.4948 123.281 32.7031C123.724 32.9115 124.086 33.2031 124.367 33.5781C124.648 33.9479 124.857 34.3854 124.992 34.8906C125.128 35.3906 125.195 35.9375 125.195 36.5312V37.1797H118.883V36H123.75V35.8906C123.729 35.5156 123.651 35.151 123.516 34.7969C123.385 34.4427 123.177 34.151 122.891 33.9219C122.604 33.6927 122.214 33.5781 121.719 33.5781C121.391 33.5781 121.089 33.6484 120.812 33.7891C120.536 33.9245 120.299 34.1276 120.102 34.3984C119.904 34.6693 119.75 35 119.641 35.3906C119.531 35.7812 119.477 36.2318 119.477 36.7422V37.0703C119.477 37.4714 119.531 37.849 119.641 38.2031C119.755 38.5521 119.919 38.8594 120.133 39.125C120.352 39.3906 120.615 39.599 120.922 39.75C121.234 39.901 121.589 39.9766 121.984 39.9766C122.495 39.9766 122.927 39.8724 123.281 39.6641C123.635 39.4557 123.945 39.1771 124.211 38.8281L125.086 39.5234C124.904 39.7995 124.672 40.0625 124.391 40.3125C124.109 40.5625 123.763 40.7656 123.352 40.9219C122.945 41.0781 122.464 41.1562 121.906 41.1562Z" fill="black"/>
<path d="M166.219 39.7734V41H160.531V39.7734H166.219ZM160.828 29.625V41H159.32V29.625H160.828ZM169.297 32.5469V41H167.844V32.5469H169.297ZM167.734 30.3047C167.734 30.0703 167.805 29.8724 167.945 29.7109C168.091 29.5495 168.305 29.4688 168.586 29.4688C168.862 29.4688 169.073 29.5495 169.219 29.7109C169.37 29.8724 169.445 30.0703 169.445 30.3047C169.445 30.5286 169.37 30.7214 169.219 30.8828C169.073 31.0391 168.862 31.1172 168.586 31.1172C168.305 31.1172 168.091 31.0391 167.945 30.8828C167.805 30.7214 167.734 30.5286 167.734 30.3047ZM173.062 34.3516V41H171.617V32.5469H172.984L173.062 34.3516ZM172.719 36.4531L172.117 36.4297C172.122 35.8516 172.208 35.3177 172.375 34.8281C172.542 34.3333 172.776 33.9036 173.078 33.5391C173.38 33.1745 173.74 32.8932 174.156 32.6953C174.578 32.4922 175.044 32.3906 175.555 32.3906C175.971 32.3906 176.346 32.4479 176.68 32.5625C177.013 32.6719 177.297 32.849 177.531 33.0938C177.771 33.3385 177.953 33.6562 178.078 34.0469C178.203 34.4323 178.266 34.9036 178.266 35.4609V41H176.812V35.4453C176.812 35.0026 176.747 34.6484 176.617 34.3828C176.487 34.112 176.297 33.9167 176.047 33.7969C175.797 33.6719 175.49 33.6094 175.125 33.6094C174.766 33.6094 174.438 33.6849 174.141 33.8359C173.849 33.987 173.596 34.1953 173.383 34.4609C173.174 34.7266 173.01 35.0312 172.891 35.375C172.776 35.7135 172.719 36.0729 172.719 36.4531ZM181.914 29V41H180.461V29H181.914ZM187.078 32.5469L183.391 36.4922L181.328 38.6328L181.211 37.0938L182.688 35.3281L185.312 32.5469H187.078ZM185.758 41L182.742 36.9688L183.492 35.6797L187.461 41H185.758ZM196.648 29.625V41H195.164V29.625H196.648ZM200.305 29.625V30.8594H191.516V29.625H200.305ZM203.461 39.5L205.633 32.5469H206.586L206.398 33.9297L204.188 41H203.258L203.461 39.5ZM202 32.5469L203.852 39.5781L203.984 41H203.008L200.555 32.5469H202ZM208.664 39.5234L210.43 32.5469H211.867L209.414 41H208.445L208.664 39.5234ZM206.797 32.5469L208.922 39.3828L209.164 41H208.242L205.969 33.9141L205.781 32.5469H206.797ZM212.969 36.8672V36.6875C212.969 36.0781 213.057 35.513 213.234 34.9922C213.411 34.4661 213.667 34.0104 214 33.625C214.333 33.2344 214.737 32.9323 215.211 32.7188C215.685 32.5 216.216 32.3906 216.805 32.3906C217.398 32.3906 217.932 32.5 218.406 32.7188C218.885 32.9323 219.292 33.2344 219.625 33.625C219.964 34.0104 220.221 34.4661 220.398 34.9922C220.576 35.513 220.664 36.0781 220.664 36.6875V36.8672C220.664 37.4766 220.576 38.0417 220.398 38.5625C220.221 39.0833 219.964 39.5391 219.625 39.9297C219.292 40.3151 218.888 40.6172 218.414 40.8359C217.945 41.0495 217.414 41.1562 216.82 41.1562C216.227 41.1562 215.693 41.0495 215.219 40.8359C214.745 40.6172 214.339 40.3151 214 39.9297C213.667 39.5391 213.411 39.0833 213.234 38.5625C213.057 38.0417 212.969 37.4766 212.969 36.8672ZM214.414 36.6875V36.8672C214.414 37.2891 214.464 37.6875 214.562 38.0625C214.661 38.4323 214.81 38.7604 215.008 39.0469C215.211 39.3333 215.464 39.5599 215.766 39.7266C216.068 39.888 216.419 39.9688 216.82 39.9688C217.216 39.9688 217.562 39.888 217.859 39.7266C218.161 39.5599 218.411 39.3333 218.609 39.0469C218.807 38.7604 218.956 38.4323 219.055 38.0625C219.159 37.6875 219.211 37.2891 219.211 36.8672V36.6875C219.211 36.2708 219.159 35.8776 219.055 35.5078C218.956 35.1328 218.805 34.8021 218.602 34.5156C218.404 34.224 218.154 33.9948 217.852 33.8281C217.555 33.6615 217.206 33.5781 216.805 33.5781C216.409 33.5781 216.06 33.6615 215.758 33.8281C215.461 33.9948 215.211 34.224 215.008 34.5156C214.81 34.8021 214.661 35.1328 214.562 35.5078C214.464 35.8776 214.414 36.2708 214.414 36.6875Z" fill="black"/>
<path d="M262.219 39.7734V41H256.531V39.7734H262.219ZM256.828 29.625V41H255.32V29.625H256.828ZM265.297 32.5469V41H263.844V32.5469H265.297ZM263.734 30.3047C263.734 30.0703 263.805 29.8724 263.945 29.7109C264.091 29.5495 264.305 29.4688 264.586 29.4688C264.862 29.4688 265.073 29.5495 265.219 29.7109C265.37 29.8724 265.445 30.0703 265.445 30.3047C265.445 30.5286 265.37 30.7214 265.219 30.8828C265.073 31.0391 264.862 31.1172 264.586 31.1172C264.305 31.1172 264.091 31.0391 263.945 30.8828C263.805 30.7214 263.734 30.5286 263.734 30.3047ZM269.062 34.3516V41H267.617V32.5469H268.984L269.062 34.3516ZM268.719 36.4531L268.117 36.4297C268.122 35.8516 268.208 35.3177 268.375 34.8281C268.542 34.3333 268.776 33.9036 269.078 33.5391C269.38 33.1745 269.74 32.8932 270.156 32.6953C270.578 32.4922 271.044 32.3906 271.555 32.3906C271.971 32.3906 272.346 32.4479 272.68 32.5625C273.013 32.6719 273.297 32.849 273.531 33.0938C273.771 33.3385 273.953 33.6562 274.078 34.0469C274.203 34.4323 274.266 34.9036 274.266 35.4609V41H272.812V35.4453C272.812 35.0026 272.747 34.6484 272.617 34.3828C272.487 34.112 272.297 33.9167 272.047 33.7969C271.797 33.6719 271.49 33.6094 271.125 33.6094C270.766 33.6094 270.438 33.6849 270.141 33.8359C269.849 33.987 269.596 34.1953 269.383 34.4609C269.174 34.7266 269.01 35.0312 268.891 35.375C268.776 35.7135 268.719 36.0729 268.719 36.4531ZM277.914 29V41H276.461V29H277.914ZM283.078 32.5469L279.391 36.4922L277.328 38.6328L277.211 37.0938L278.688 35.3281L281.312 32.5469H283.078ZM281.758 41L278.742 36.9688L279.492 35.6797L283.461 41H281.758ZM292.648 29.625V41H291.164V29.625H292.648ZM296.305 29.625V30.8594H287.516V29.625H296.305ZM299.219 29V41H297.773V29H299.219ZM298.875 36.4531L298.273 36.4297C298.279 35.8516 298.365 35.3177 298.531 34.8281C298.698 34.3333 298.932 33.9036 299.234 33.5391C299.536 33.1745 299.896 32.8932 300.312 32.6953C300.734 32.4922 301.201 32.3906 301.711 32.3906C302.128 32.3906 302.503 32.4479 302.836 32.5625C303.169 32.6719 303.453 32.849 303.688 33.0938C303.927 33.3385 304.109 33.6562 304.234 34.0469C304.359 34.4323 304.422 34.9036 304.422 35.4609V41H302.969V35.4453C302.969 35.0026 302.904 34.6484 302.773 34.3828C302.643 34.112 302.453 33.9167 302.203 33.7969C301.953 33.6719 301.646 33.6094 301.281 33.6094C300.922 33.6094 300.594 33.6849 300.297 33.8359C300.005 33.987 299.753 34.1953 299.539 34.4609C299.331 34.7266 299.167 35.0312 299.047 35.375C298.932 35.7135 298.875 36.0729 298.875 36.4531ZM308.031 33.875V41H306.586V32.5469H307.992L308.031 33.875ZM310.672 32.5L310.664 33.8438C310.544 33.8177 310.43 33.8021 310.32 33.7969C310.216 33.7865 310.096 33.7812 309.961 33.7812C309.628 33.7812 309.333 33.8333 309.078 33.9375C308.823 34.0417 308.607 34.1875 308.43 34.375C308.253 34.5625 308.112 34.7865 308.008 35.0469C307.909 35.3021 307.844 35.5833 307.812 35.8906L307.406 36.125C307.406 35.6146 307.456 35.1354 307.555 34.6875C307.659 34.2396 307.818 33.8438 308.031 33.5C308.245 33.151 308.516 32.8802 308.844 32.6875C309.177 32.4896 309.573 32.3906 310.031 32.3906C310.135 32.3906 310.255 32.4036 310.391 32.4297C310.526 32.4505 310.62 32.474 310.672 32.5ZM315.359 41.1562C314.771 41.1562 314.237 41.0573 313.758 40.8594C313.284 40.6562 312.875 40.3724 312.531 40.0078C312.193 39.6432 311.932 39.2109 311.75 38.7109C311.568 38.2109 311.477 37.6641 311.477 37.0703V36.7422C311.477 36.0547 311.578 35.4427 311.781 34.9062C311.984 34.3646 312.26 33.9062 312.609 33.5312C312.958 33.1562 313.354 32.8724 313.797 32.6797C314.24 32.487 314.698 32.3906 315.172 32.3906C315.776 32.3906 316.297 32.4948 316.734 32.7031C317.177 32.9115 317.539 33.2031 317.82 33.5781C318.102 33.9479 318.31 34.3854 318.445 34.8906C318.581 35.3906 318.648 35.9375 318.648 36.5312V37.1797H312.336V36H317.203V35.8906C317.182 35.5156 317.104 35.151 316.969 34.7969C316.839 34.4427 316.63 34.151 316.344 33.9219C316.057 33.6927 315.667 33.5781 315.172 33.5781C314.844 33.5781 314.542 33.6484 314.266 33.7891C313.99 33.9245 313.753 34.1276 313.555 34.3984C313.357 34.6693 313.203 35 313.094 35.3906C312.984 35.7812 312.93 36.2318 312.93 36.7422V37.0703C312.93 37.4714 312.984 37.849 313.094 38.2031C313.208 38.5521 313.372 38.8594 313.586 39.125C313.805 39.3906 314.068 39.599 314.375 39.75C314.688 39.901 315.042 39.9766 315.438 39.9766C315.948 39.9766 316.38 39.8724 316.734 39.6641C317.089 39.4557 317.398 39.1771 317.664 38.8281L318.539 39.5234C318.357 39.7995 318.125 40.0625 317.844 40.3125C317.562 40.5625 317.216 40.7656 316.805 40.9219C316.398 41.0781 315.917 41.1562 315.359 41.1562ZM323.844 41.1562C323.255 41.1562 322.721 41.0573 322.242 40.8594C321.768 40.6562 321.359 40.3724 321.016 40.0078C320.677 39.6432 320.417 39.2109 320.234 38.7109C320.052 38.2109 319.961 37.6641 319.961 37.0703V36.7422C319.961 36.0547 320.062 35.4427 320.266 34.9062C320.469 34.3646 320.745 33.9062 321.094 33.5312C321.443 33.1562 321.839 32.8724 322.281 32.6797C322.724 32.487 323.182 32.3906 323.656 32.3906C324.26 32.3906 324.781 32.4948 325.219 32.7031C325.661 32.9115 326.023 33.2031 326.305 33.5781C326.586 33.9479 326.794 34.3854 326.93 34.8906C327.065 35.3906 327.133 35.9375 327.133 36.5312V37.1797H320.82V36H325.688V35.8906C325.667 35.5156 325.589 35.151 325.453 34.7969C325.323 34.4427 325.115 34.151 324.828 33.9219C324.542 33.6927 324.151 33.5781 323.656 33.5781C323.328 33.5781 323.026 33.6484 322.75 33.7891C322.474 33.9245 322.237 34.1276 322.039 34.3984C321.841 34.6693 321.688 35 321.578 35.3906C321.469 35.7812 321.414 36.2318 321.414 36.7422V37.0703C321.414 37.4714 321.469 37.849 321.578 38.2031C321.693 38.5521 321.857 38.8594 322.07 39.125C322.289 39.3906 322.552 39.599 322.859 39.75C323.172 39.901 323.526 39.9766 323.922 39.9766C324.432 39.9766 324.865 39.8724 325.219 39.6641C325.573 39.4557 325.883 39.1771 326.148 38.8281L327.023 39.5234C326.841 39.7995 326.609 40.0625 326.328 40.3125C326.047 40.5625 325.701 40.7656 325.289 40.9219C324.883 41.0781 324.401 41.1562 323.844 41.1562Z" fill="black"/>
<path fill-rule="evenodd" clip-rule="evenodd" d="M344.398 39.6629C344.178 39.8826 343.822 39.8826 343.602 39.6629L337.867 33.928C337.648 33.7084 337.648 33.3523 337.867 33.1326L338.133 32.8674C338.352 32.6477 338.708 32.6477 338.928 32.8674L344 37.9393L349.072 32.8674C349.292 32.6477 349.648 32.6477 349.867 32.8674L350.133 33.1326C350.352 33.3523 350.352 33.7084 350.133 33.928L344.398 39.6629Z" fill="black"/>
<g clip-path="url(#clip0_4172_6283)">
<path d="M751.911 35.0815L751.874 35.1187C752.134 34.4125 752.655 34.1523 753.101 34.1523C753.733 34.1523 754.29 34.6355 754.29 35.3417C754.29 35.4904 754.29 35.6762 754.216 35.8992C752.915 39.2444 750.164 40.9541 747.488 41.2143C746.262 43.2957 744.255 44.8196 741.393 44.8196C737.304 44.8196 735.483 41.586 735.483 38.055C735.483 33.7063 738.233 28.8744 742.842 28.8744C743.846 28.8744 744.701 29.0975 745.407 29.3948C747.488 30.1753 748.826 32.8886 748.826 35.7877C748.826 36.7169 748.752 37.6461 748.529 38.5382C749.904 38.055 751.205 36.9399 751.911 35.0815ZM744.143 31.9222V31.8851C743.325 31.8851 742.842 32.9629 742.842 34.2638C742.842 36.1594 743.883 37.9063 745.518 38.5382C745.779 37.7205 745.89 36.7913 745.89 35.7134C745.89 33.632 745.258 31.9222 744.143 31.9222ZM741.43 42.1063C742.471 42.1063 743.511 41.6603 744.329 40.7311C741.913 39.6532 740.389 37.1258 740.389 34.7098C740.389 33.8921 740.538 33.0373 740.761 32.2939C739.274 33.5205 738.419 35.9364 738.419 38.055C738.419 40.8054 739.72 42.1063 741.43 42.1063Z" fill="black"/>
<path d="M736.057 35.0815L736.02 35.1187C736.28 34.4125 736.726 34.1152 737.172 34.1152C737.804 34.1152 738.435 34.6727 738.435 35.3789C738.435 35.5647 738.398 35.7134 738.324 35.8992C736.874 39.4302 734.719 43.5559 731.262 45.9718L731.188 46.7152C730.779 51.1754 728.512 54.0001 725.65 54.0001C723.494 54.0001 722.23 52.5134 722.23 50.7665C722.23 47.6072 725.464 46.455 728.474 44.5223C728.549 43.7417 728.586 42.8497 728.623 41.8461C727.136 43.4815 725.538 44.1506 724.126 44.1506C721.301 44.1506 718.997 41.8461 718.997 38.3152C718.997 32.8886 722.565 29.3205 726.542 29.3205H726.579C729.292 29.3205 732.191 30.77 732.191 33.3718C732.191 34.2267 731.82 38.8727 731.522 42.478C733.529 40.5824 735.202 37.4975 736.057 35.0815ZM724.535 41.4745C725.91 41.4745 727.768 40.6196 728.92 36.4196C729.106 35.4904 729.218 34.6727 729.181 33.7063C728.958 32.7028 728.103 32.1081 726.876 32.1081C724.349 32.1081 721.933 34.524 721.933 38.2037C721.933 40.4338 722.974 41.4745 724.535 41.4745ZM725.947 51.2869H725.984C726.765 51.2869 727.62 50.7665 728.177 47.4214C726.542 48.3877 725.018 49.3541 725.018 50.5063C725.018 50.9895 725.389 51.2869 725.947 51.2869Z" fill="black"/>
<path d="M719.649 35.0815L719.611 35.1187C719.872 34.4125 720.392 34.1523 720.838 34.1523C721.47 34.1523 722.027 34.6355 722.027 35.3417C722.027 35.4904 722.027 35.6762 721.953 35.8992C720.652 39.2444 717.902 40.9541 715.226 41.2143C713.999 43.2957 711.992 44.8196 709.13 44.8196C705.041 44.8196 703.22 41.586 703.22 38.055C703.22 33.7063 705.971 28.8744 710.58 28.8744C711.583 28.8744 712.438 29.0975 713.144 29.3948C715.226 30.1753 716.564 32.8886 716.564 35.7877C716.564 36.7169 716.489 37.6461 716.266 38.5382C717.642 38.055 718.942 36.9399 719.649 35.0815ZM711.88 31.9222V31.8851C711.063 31.8851 710.58 32.9629 710.58 34.2638C710.58 36.1594 711.62 37.9063 713.256 38.5382C713.516 37.7205 713.627 36.7913 713.627 35.7134C713.627 33.632 712.995 31.9222 711.88 31.9222ZM709.167 42.1063C710.208 42.1063 711.249 41.6603 712.066 40.7311C709.65 39.6532 708.126 37.1258 708.126 34.7098C708.126 33.8921 708.275 33.0373 708.498 32.2939C707.011 33.5205 706.157 35.9364 706.157 38.055C706.157 40.8054 707.457 42.1063 709.167 42.1063Z" fill="black"/>
<path d="M705.109 33.9083C704.589 33.9083 704.143 34.1685 703.846 34.8747C702.879 37.3278 700.872 41.4907 698.828 41.4907C697.541 41.4907 696.545 41.1996 695.538 40.9054C694.51 40.605 693.471 40.3013 692.1 40.3013C691.617 40.3013 690.948 40.3757 690.316 40.4872C692.22 37.8914 692.931 34.7477 693.62 28.8054C692.323 28.7228 691.267 28.4831 690.498 28.241C689.676 35.7775 688.743 38.6511 685.336 41.4907C684.89 41.8624 684.667 42.3828 684.667 42.9032C684.667 43.7209 685.373 44.4271 686.265 44.4271C686.562 44.4271 686.897 44.3156 687.231 44.1669C689.127 43.312 690.279 43.089 691.691 43.089C692.59 43.089 693.664 43.3459 694.815 43.6208C696.14 43.9376 697.567 44.2784 698.939 44.2784C701.95 44.2784 703.92 41.3421 706.113 35.6552C706.225 35.4694 706.262 35.2464 706.262 35.0605C706.262 34.3543 705.704 33.9083 705.109 33.9083Z" fill="black"/>
<path fill-rule="evenodd" clip-rule="evenodd" d="M690.686 26.7029C691.359 26.9378 692.41 27.2114 693.773 27.2923L693.996 27.2922C698.196 27.2922 700.946 24.6904 700.946 21.5682C700.946 19.5611 699.385 18 697.192 18C694.256 18 692.211 20.0071 691.171 23.9842C689.87 23.278 688.978 22.0142 688.532 20.416C688.309 19.6354 687.825 19.1522 687.156 19.1522C686.339 19.1522 685.818 19.7841 685.818 20.639C685.818 23.1665 687.788 25.5825 690.687 26.6975L690.686 26.7029ZM694.219 24.5789C694.776 22.0142 695.668 20.7877 696.858 20.7877C697.489 20.7877 697.898 21.1594 697.898 21.8284C697.898 23.055 696.597 24.5045 694.219 24.5789Z" fill="black"/>
</g>
<rect x="1287.5" y="15.5" width="89" height="41" fill="black"/>
<rect x="1287.5" y="15.5" width="89" height="41" stroke="black"/>
<path d="M1313.38 35.6797H1310.49L1310.48 34.4688H1313.09C1313.53 34.4688 1313.9 34.3958 1314.23 34.25C1314.55 34.1042 1314.8 33.8958 1314.98 33.625C1315.16 33.349 1315.25 33.0208 1315.25 32.6406C1315.25 32.224 1315.17 31.8854 1315.01 31.625C1314.85 31.3594 1314.61 31.1667 1314.28 31.0469C1313.96 30.9219 1313.55 30.8594 1313.05 30.8594H1310.83V41H1309.32V29.625H1313.05C1313.63 29.625 1314.15 29.6849 1314.61 29.8047C1315.07 29.9193 1315.46 30.1016 1315.77 30.3516C1316.1 30.5964 1316.34 30.9089 1316.51 31.2891C1316.67 31.6693 1316.76 32.125 1316.76 32.6562C1316.76 33.125 1316.64 33.5495 1316.4 33.9297C1316.16 34.3047 1315.83 34.612 1315.4 34.8516C1314.98 35.0911 1314.48 35.2448 1313.91 35.3125L1313.38 35.6797ZM1313.3 41H1309.9L1310.75 39.7734H1313.3C1313.78 39.7734 1314.19 39.6901 1314.52 39.5234C1314.86 39.3568 1315.12 39.1224 1315.3 38.8203C1315.47 38.513 1315.56 38.151 1315.56 37.7344C1315.56 37.3125 1315.49 36.9479 1315.34 36.6406C1315.18 36.3333 1314.95 36.0964 1314.62 35.9297C1314.3 35.763 1313.89 35.6797 1313.38 35.6797H1311.23L1311.24 34.4688H1314.18L1314.5 34.9062C1315.05 34.9531 1315.51 35.1094 1315.89 35.375C1316.27 35.6354 1316.56 35.9688 1316.76 36.375C1316.96 36.7812 1317.06 37.2292 1317.06 37.7188C1317.06 38.4271 1316.91 39.026 1316.59 39.5156C1316.29 40 1315.85 40.3698 1315.29 40.625C1314.73 40.875 1314.07 41 1313.3 41ZM1324.24 39.0469V32.5469H1325.7V41H1324.31L1324.24 39.0469ZM1324.52 37.2656L1325.12 37.25C1325.12 37.8125 1325.06 38.3333 1324.94 38.8125C1324.82 39.2865 1324.64 39.6979 1324.38 40.0469C1324.11 40.3958 1323.77 40.6693 1323.35 40.8672C1322.93 41.0599 1322.42 41.1562 1321.81 41.1562C1321.4 41.1562 1321.02 41.0964 1320.68 40.9766C1320.34 40.8568 1320.05 40.6719 1319.8 40.4219C1319.56 40.1719 1319.37 39.8464 1319.23 39.4453C1319.1 39.0443 1319.04 38.5625 1319.04 38V32.5469H1320.48V38.0156C1320.48 38.3958 1320.53 38.7109 1320.61 38.9609C1320.7 39.2057 1320.82 39.401 1320.96 39.5469C1321.11 39.6875 1321.28 39.7865 1321.46 39.8438C1321.65 39.901 1321.84 39.9297 1322.04 39.9297C1322.65 39.9297 1323.14 39.8125 1323.5 39.5781C1323.86 39.3385 1324.12 39.0182 1324.27 38.6172C1324.43 38.2109 1324.52 37.7604 1324.52 37.2656ZM1331.44 32.5469V33.6562H1326.87V32.5469H1331.44ZM1328.41 30.4922H1329.86V38.9062C1329.86 39.1927 1329.9 39.4089 1329.99 39.5547C1330.08 39.7005 1330.2 39.7969 1330.34 39.8438C1330.48 39.8906 1330.63 39.9141 1330.79 39.9141C1330.91 39.9141 1331.03 39.9036 1331.16 39.8828C1331.3 39.8568 1331.4 39.8359 1331.47 39.8203L1331.48 41C1331.36 41.0365 1331.21 41.0703 1331.02 41.1016C1330.84 41.138 1330.62 41.1562 1330.36 41.1562C1330.01 41.1562 1329.68 41.0859 1329.38 40.9453C1329.09 40.8047 1328.85 40.5703 1328.67 40.2422C1328.5 39.9089 1328.41 39.4609 1328.41 38.8984V30.4922ZM1336.67 32.5469V33.6562H1332.1V32.5469H1336.67ZM1333.65 30.4922H1335.09V38.9062C1335.09 39.1927 1335.14 39.4089 1335.23 39.5547C1335.32 39.7005 1335.43 39.7969 1335.57 39.8438C1335.71 39.8906 1335.86 39.9141 1336.02 39.9141C1336.14 39.9141 1336.27 39.9036 1336.4 39.8828C1336.53 39.8568 1336.64 39.8359 1336.7 39.8203L1336.71 41C1336.6 41.0365 1336.45 41.0703 1336.26 41.1016C1336.08 41.138 1335.85 41.1562 1335.59 41.1562C1335.24 41.1562 1334.91 41.0859 1334.62 40.9453C1334.32 40.8047 1334.08 40.5703 1333.91 40.2422C1333.73 39.9089 1333.65 39.4609 1333.65 38.8984V30.4922ZM1337.83 36.8672V36.6875C1337.83 36.0781 1337.92 35.513 1338.09 34.9922C1338.27 34.4661 1338.53 34.0104 1338.86 33.625C1339.19 33.2344 1339.6 32.9323 1340.07 32.7188C1340.54 32.5 1341.08 32.3906 1341.66 32.3906C1342.26 32.3906 1342.79 32.5 1343.27 32.7188C1343.74 32.9323 1344.15 33.2344 1344.48 33.625C1344.82 34.0104 1345.08 34.4661 1345.26 34.9922C1345.43 35.513 1345.52 36.0781 1345.52 36.6875V36.8672C1345.52 37.4766 1345.43 38.0417 1345.26 38.5625C1345.08 39.0833 1344.82 39.5391 1344.48 39.9297C1344.15 40.3151 1343.75 40.6172 1343.27 40.8359C1342.8 41.0495 1342.27 41.1562 1341.68 41.1562C1341.09 41.1562 1340.55 41.0495 1340.08 40.8359C1339.6 40.6172 1339.2 40.3151 1338.86 39.9297C1338.53 39.5391 1338.27 39.0833 1338.09 38.5625C1337.92 38.0417 1337.83 37.4766 1337.83 36.8672ZM1339.27 36.6875V36.8672C1339.27 37.2891 1339.32 37.6875 1339.42 38.0625C1339.52 38.4323 1339.67 38.7604 1339.87 39.0469C1340.07 39.3333 1340.32 39.5599 1340.62 39.7266C1340.93 39.888 1341.28 39.9688 1341.68 39.9688C1342.08 39.9688 1342.42 39.888 1342.72 39.7266C1343.02 39.5599 1343.27 39.3333 1343.47 39.0469C1343.67 38.7604 1343.82 38.4323 1343.91 38.0625C1344.02 37.6875 1344.07 37.2891 1344.07 36.8672V36.6875C1344.07 36.2708 1344.02 35.8776 1343.91 35.5078C1343.82 35.1328 1343.66 34.8021 1343.46 34.5156C1343.26 34.224 1343.01 33.9948 1342.71 33.8281C1342.41 33.6615 1342.07 33.5781 1341.66 33.5781C1341.27 33.5781 1340.92 33.6615 1340.62 33.8281C1340.32 33.9948 1340.07 34.224 1339.87 34.5156C1339.67 34.8021 1339.52 35.1328 1339.42 35.5078C1339.32 35.8776 1339.27 36.2708 1339.27 36.6875ZM1348.78 34.3516V41H1347.34V32.5469H1348.7L1348.78 34.3516ZM1348.44 36.4531L1347.84 36.4297C1347.84 35.8516 1347.93 35.3177 1348.09 34.8281C1348.26 34.3333 1348.49 33.9036 1348.8 33.5391C1349.1 33.1745 1349.46 32.8932 1349.88 32.6953C1350.3 32.4922 1350.76 32.3906 1351.27 32.3906C1351.69 32.3906 1352.07 32.4479 1352.4 32.5625C1352.73 32.6719 1353.02 32.849 1353.25 33.0938C1353.49 33.3385 1353.67 33.6562 1353.8 34.0469C1353.92 34.4323 1353.98 34.9036 1353.98 35.4609V41H1352.53V35.4453C1352.53 35.0026 1352.47 34.6484 1352.34 34.3828C1352.21 34.112 1352.02 33.9167 1351.77 33.7969C1351.52 33.6719 1351.21 33.6094 1350.84 33.6094C1350.48 33.6094 1350.16 33.6849 1349.86 33.8359C1349.57 33.987 1349.32 34.1953 1349.1 34.4609C1348.89 34.7266 1348.73 35.0312 1348.61 35.375C1348.49 35.7135 1348.44 36.0729 1348.44 36.4531Z" fill="white"/>
<defs>
<clipPath id="clip0_4172_6283">
<rect width="70" height="36" fill="white" transform="translate(684.667 18)"/>
</clipPath>
</defs>
</svg>
